<?xml version="1.0" encoding="utf-8"?>
<!-- Generator: Adobe Illustrator 23.0.2, SVG Export Plug-In . SVG Version: 6.00 Build 0)  -->
<svg version="1.1" id="Capa_1" xmlns="http://www.w3.org/2000/svg" xmlns:xlink="http://www.w3.org/1999/xlink" x="0px" y="0px"
	 viewBox="0 0 350 350" style="enable-background:new 0 0 350 350;" xml:space="preserve">
<style type="text/css">
	.st0{fill:#FFA826;}
	.st1{fill:none;stroke:#FFA826;stroke-width:18;stroke-miterlimit:10;}
</style>
<g>
	<path class="st0" d="M171.5,183c27.9,0,50.4-27.4,50.4-61.3c0-33.8-7.4-61.3-50.4-61.3S121,87.9,121,121.7
		C121,155.5,143.6,183,171.5,183z"/>
	<path class="st0" d="M76.2,276.5C76.2,274.5,76.2,275.9,76.2,276.5L76.2,276.5z"/>
	<path class="st0" d="M266.7,278.1C266.8,277.6,266.7,274.2,266.7,278.1L266.7,278.1z"/>
	<path class="st0" d="M266.6,274c-0.9-58.9-8.6-75.7-67.5-86.4c0,0-8.3,10.6-27.6,10.6s-27.6-10.6-27.6-10.6
		c-58.3,10.5-66.4,27.1-67.5,84.5c-0.1,4.7-0.1,4.9-0.1,4.4c0,1,0,2.9,0,6.2c0,0,14,28.3,95.3,28.3c81.2,0,95.3-28.3,95.3-28.3
		c0-2.1,0-3.6,0-4.6C266.7,278.5,266.7,277.8,266.6,274z"/>
</g>
<circle class="st1" cx="171.5" cy="175" r="136"/>
</svg>
