<?xml version="1.0" encoding="utf-8"?>
<!-- Generator: Adobe Illustrator 23.0.2, SVG Export Plug-In . SVG Version: 6.00 Build 0)  -->
<svg version="1.1" id="Capa_1" xmlns="http://www.w3.org/2000/svg" xmlns:xlink="http://www.w3.org/1999/xlink" x="0px" y="0px"
	 viewBox="0 0 410.3 410.3" style="enable-background:new 0 0 410.3 410.3;" xml:space="preserve">
<style type="text/css">
	.st0{fill:#FFA826;}
</style>
<path class="st0" d="M194.3,0C108.5,0.1,38.9,69.7,38.9,155.5c0,83.5,143.4,245.4,149.4,252.2c3,3.3,8,3.6,11.3,0.6
	c0.2-0.2,0.4-0.4,0.6-0.6c6.1-6.9,149.4-168.6,149.4-252.2C349.6,69.7,280.1,0.1,194.3,0z M289.7,175.9c-4.6,22.4-17.4,42.4-36,56.4
	c-1.7,1.3-4.1,1-5.5-0.6c-1.3-1.6-1-4,0.7-5.2c25.8-19.4,38-50.2,34.1-80c-0.5,2.1-1.6,4.1-3.2,5.6l-2.5,2.4
	c-0.7,0.7-1.7,1.1-2.8,1.1c-0.3,0-0.6,0-0.8-0.1c-1.3-0.3-2.4-1.2-2.8-2.4l-5.3-13.9c-0.1-0.2-0.2-0.4-0.4-0.6l-4.8-5.4
	c-0.4-0.4-0.9-0.7-1.5-0.7h-1.9l0.2,0.3c1,1.5,0.8,3.4-0.5,4.7c-5.1,4.9-11.4,8.8-18.2,11.2l-2.9,1c-1.8,0.6-3.9-0.1-4.8-1.8
	l-10-18.4c-0.3-0.5-0.4-1.1-0.4-1.7v-2.6l-5.4-4.9l-2.1-0.7c-1.8-0.9-2.8-0.9-4.7-1.4c-8.7-1.9-18.1-2.9-26.8-4.1
	c-1.2-0.2-1.7-0.5-3.6-0.4c-4.2,0-7.9,2.5-9.3,6.3l-0.1,0.2c1.9-0.2,3.7-0.3,5.4-0.3c1.1,0,2.1-0.1,2.9-0.1
	c1.4-0.1,8.6-0.5,10.8,3.9c0.4,0.8,0.7,2,0.3,3.6c0,0,0,0,0.1,0c1.2,0.8,3.2,2,4.6,2.7c0.4-1,1.1-1.6,1.4-1.8
	c0.9-0.7,2.1-1.2,4.1-1.6c0.7-0.2,1.5-0.1,2.2,0.1c0.9,0.3,2.1,0.6,3.5,1c4.1,1.1,8.7,2.3,11.1,4.7c2.7,2.8,4.3,6.7,5.7,10.2
	c0.5,1.3,1,2.6,1.5,3.6c0.3,0.6,0.6,1.2,0.8,1.8c1.4,3,2.9,6.2,5.3,7.7c0.5,0.3,2.3,0.6,3.4,0.8c2.9,0.4,6.4,0.9,7.8,4.1
	c1.4,3.2-0.9,6.4-1.6,7.4c-1.7,2.4-4,4.4-6.2,6.4c-5,4.5-7.1,6.8-5.9,10.5c1.4,4.4,2.7,8.5-2.4,13.9c-0.3,0.3-0.6,0.6-0.9,0.9
	c-1.5,1.6-2,2-2.6,4c-0.8,2.5-2.1,3.9-3.2,5c-0.5,0.6-0.9,1-1.3,1.6c-0.2,0.4-0.3,0.9-0.5,1.7c-0.3,1.4-0.7,3.4-2.4,5.4
	c-2.7,3.2-8.5,8.1-14.1,8.1c-1.1,0-2.3-0.2-3.4-0.7c-2.1-0.9-4.7-3.2-8.2-13.1c-0.4-1.2-1.1-2.6-1.8-4.1c-2.1-4.5-4.6-9.7-2.8-14.9
	c0.1-0.3,0.2-0.6,0.3-0.9c1.2-3.4,1.7-4.9,0.5-7.7c-0.2-0.4-0.8-1.1-1.4-1.7c-1.2-1.3-2.7-2.8-3.3-5.1c-0.4-1.4-0.4-2.7-0.3-3.7
	c0-1.6,0-1.7-0.6-2.1c-1.1-1-2.1-0.9-5.5-0.1c-1.2,0.3-2.4,0.6-3.8,0.7c-8.2,0.9-15.9-2.2-20.6-8.4c-4.8-6.4-5.6-15-1.9-22.4
	c1.7-3.4,4-5.9,6.2-8.3c0.4-0.5,0.9-0.9,1.3-1.4c0.5-0.6,1.2-1.5,2-2.6c1.7-2.4,3.2-4.3,4.7-5.6l-10.5-14.1c-0.8-1-0.9-2.4-0.4-3.6
	l7.2-16.7c0.4-1,1.3-1.7,2.3-2.1l25.7-8.6l6.9-8.3c-15.2,0.1-30.6,3.9-44.7,11.7c-3.8,2.1-7.5,4.5-10.9,7c3.1,1.9,5.6,4.6,7.1,8
	c2.4,5.6,1.2,12.2-3.2,16.6l-4.3,4.4l-10.6,17.7c-0.3,0.5-0.6,0.9-1.1,1.2l-6.8,4.7l4.7,6.7c0.7,1,0.9,2.4,0.4,3.5
	c-0.5,1.2-1.6,2-2.9,2.2c0,0-3.3,0.5-6.6,1c-3.4,0.5-5.5,0.8-7,0.8c-1.5,0-2.3-0.3-3.1-1c-0.3-0.2-0.5-0.5-0.7-0.8
	c-0.2-0.2-0.4-0.4-0.8-0.7c-0.2,3.4-0.2,6.8,0,10.1l9.9-3.1c1.2-0.4,2.5-0.2,3.5,0.6l16.9,12.3l8.8,1.6c3.4,0.6,6.3,2.6,8.1,5.5
	c1.7,2.9,2.1,6.3,1.1,9.5c-0.3,0.8-0.3,1.7,0,2.6l1.2,3.6c2.1,6.1-1.4,12.6-7.7,14.6l-1.7,0.5l-3.5,17.4
	c24.5,17.6,57.3,22.7,87.5,11.5c2-0.7,4.2,0.2,5,2.1c0.8,1.9-0.2,4.1-2.2,4.8c-11.4,4.2-23.4,6.3-35.5,6.3
	c-11.1,0-22.2-1.8-32.8-5.3c-22.4-7.5-41.3-22.5-53.3-42.2c-13.3-22-16.8-47.6-9.9-72.2c6.9-24.5,23.3-45.1,46.3-57.8
	c23-12.7,49.7-16.1,75.4-9.5c25.6,6.6,47,22.3,60.3,44.3C290.3,129.9,294.4,153.4,289.7,175.9z"/>
</svg>
